<?xml version="1.0" standalone="no"?>
<!DOCTYPE svg PUBLIC "-//W3C//DTD SVG 20010904//EN"
 "http://www.w3.org/TR/2001/REC-SVG-20010904/DTD/svg10.dtd">
<svg version="1.0" xmlns="http://www.w3.org/2000/svg"
 width="4318.000000pt" height="5219.000000pt" viewBox="0 0 4318.000000 5219.000000"
 preserveAspectRatio="xMidYMid meet">

<g transform="translate(0.000000,5219.000000) scale(0.100000,-0.100000)"
fill="#000000" stroke="none">
<path d="M21410 52173 c-278 -51 -1249 -239 -1465 -284 -5532 -1151 -11783
-3694 -17975 -7312 -549 -321 -1915 -1143 -1954 -1176 -18 -16 -19 -45 -13
-1111 11 -1893 64 -3315 187 -5025 476 -6597 1688 -12486 3645 -17720 963
-2576 2104 -4970 3398 -7127 3256 -5432 7450 -9379 12327 -11603 517 -235
1016 -440 1647 -675 l383 -142 377 142 c469 176 748 288 1107 442 2154 922
4150 2155 6026 3722 1715 1432 3345 3168 4790 5101 3673 4914 6379 11382 7895
18875 779 3851 1230 7958 1365 12425 12 406 29 1710 30 2287 l0 397 -27 19
c-53 37 -1129 690 -1483 899 -3250 1923 -6611 3593 -9891 4917 -2631 1061
-5301 1916 -7759 2485 -743 172 -1948 414 -2267 456 -107 14 -286 18 -343 8z
m-521 -4894 c48 -52 222 -242 386 -424 437 -483 642 -700 926 -980 1203 -1185
2479 -2080 3889 -2728 636 -292 1259 -469 1700 -484 228 -8 318 4 758 96 410
86 588 85 930 -4 315 -83 625 -227 767 -357 90 -82 139 -197 200 -468 42 -184
96 -358 149 -474 111 -244 326 -463 573 -582 120 -58 171 -65 532 -71 l323 -6
15 -36 c55 -134 88 -186 167 -266 96 -97 205 -167 324 -208 74 -25 97 -29 161
-25 66 4 102 15 277 85 230 93 319 118 398 111 71 -6 87 -21 137 -127 68 -146
230 -289 557 -493 445 -277 667 -449 867 -675 160 -179 239 -297 375 -558 l84
-160 -195 185 c-241 229 -306 287 -446 392 -195 146 -310 206 -484 253 l-89
24 0 -289 c0 -429 -21 -686 -81 -983 -52 -264 -149 -516 -254 -662 -45 -63
-155 -174 -192 -194 -20 -10 -23 -9 -29 16 -3 16 -8 34 -10 42 -3 8 -9 130
-14 270 -10 276 -28 440 -61 566 -44 170 -147 411 -195 456 l-24 23 -93 -64
c-50 -34 -193 -138 -317 -230 -244 -182 -410 -295 -563 -384 -174 -102 -333
-167 -372 -152 -14 5 -14 9 1 38 23 46 81 122 199 263 188 225 257 358 257
496 0 78 -24 123 -86 164 -191 126 -585 151 -946 60 -345 -87 -655 -235 -1123
-536 l-168 -109 -10 28 c-6 15 -42 115 -81 222 -145 406 -172 459 -245 479
-46 13 -98 3 -247 -49 -223 -77 -358 -160 -512 -314 -131 -131 -168 -201 -162
-303 8 -146 114 -284 298 -392 164 -96 261 -113 730 -131 494 -18 575 -26 645
-60 79 -38 210 -144 276 -223 28 -34 79 -105 113 -157 l61 -95 6 135 c4 74 11
157 18 183 14 60 74 208 82 205 7 -3 196 -220 290 -333 103 -124 309 -401 406
-547 82 -122 121 -187 288 -472 69 -116 137 -211 162 -224 46 -25 177 53 309
183 90 89 107 111 147 195 24 52 59 138 76 190 29 85 120 416 121 437 1 4 21
-39 46 -97 71 -164 90 -257 134 -653 23 -210 63 -209 190 3 53 88 80 117 100
105 25 -16 34 -129 34 -435 0 -245 -4 -343 -17 -440 -77 -547 -267 -938 -602
-1233 -204 -181 -472 -343 -602 -364 -30 -5 -33 -3 -33 20 0 14 15 89 34 166
48 195 59 282 53 424 -6 151 -23 204 -86 267 -107 106 -292 148 -606 136 -286
-10 -587 -52 -1158 -161 -350 -67 -579 -107 -584 -101 -4 4 139 97 247 161
399 236 770 597 770 750 0 88 -73 196 -167 248 -28 14 -110 43 -184 62 -74 20
-316 96 -539 171 -442 148 -563 182 -685 191 -107 8 -204 -17 -359 -92 -114
-55 -121 -57 -180 -52 -35 3 -101 20 -154 41 -191 74 -327 96 -583 96 -260 0
-340 -19 -734 -178 -332 -134 -379 -142 -830 -142 -329 0 -395 6 -515 45 -90
30 -327 144 -425 205 -288 179 -557 445 -695 685 -167 293 -217 622 -139 922
47 182 173 385 344 558 217 219 647 459 1123 625 67 24 121 44 120 45 -2 2
-48 10 -103 20 -142 24 -327 34 -474 24 -584 -38 -974 -268 -1243 -736 -106
-184 -220 -492 -289 -774 l-32 -135 -226 57 c-124 32 -374 87 -556 124 -181
36 -464 95 -627 130 -680 148 -985 178 -1963 194 -565 10 -1630 -1 -1875 -19
-669 -48 -1534 -221 -2319 -465 -1247 -387 -2383 -982 -3246 -1700 -1982
-1649 -3433 -4329 -3869 -7145 -71 -459 -104 -1261 -85 -2110 13 -611 34 -934
85 -1260 129 -840 406 -1760 799 -2655 174 -397 625 -1247 1183 -2228 96 -169
172 -310 169 -313 -6 -6 -87 61 -237 194 -1074 955 -1947 2098 -2651 3467
-199 386 -363 750 -561 1245 -142 354 -215 510 -239 510 -67 0 -155 -286 -214
-698 -20 -136 -39 -258 -44 -272 -7 -24 -8 -23 -44 25 -86 118 -213 398 -266
590 -78 275 -111 531 -118 910 -8 391 16 727 83 1180 190 1283 722 2950 1537
4815 76 175 109 268 96 276 -45 27 -209 -77 -474 -302 -184 -155 -321 -286
-678 -648 l-328 -331 5 250 c7 356 39 591 133 960 83 330 204 670 370 1035
310 686 875 1528 1553 2320 342 399 585 655 1335 1410 722 726 771 780 729
797 -64 24 -612 -170 -1169 -414 -268 -118 -363 -157 -409 -169 -25 -6 -27 -5
-18 12 6 11 70 78 144 149 556 542 1235 1036 2026 1474 1753 972 3964 1653
5942 1830 672 61 916 83 1020 95 135 15 150 7 -165 84 -307 76 -551 117 -1452
242 -614 86 -785 118 -785 145 1 22 202 64 1012 210 1428 257 1722 311 2065
380 919 183 1457 340 2087 609 434 185 644 294 983 512 55 35 108 64 119 64
23 0 119 -55 501 -285 517 -312 729 -424 995 -523 229 -86 495 -141 694 -145
109 -2 156 6 156 27 0 18 -99 111 -275 256 -288 238 -380 316 -484 410 -295
263 -566 524 -1072 1030 -705 705 -1038 1062 -1324 1420 -655 819 -1233 1773
-1329 2193 -7 28 -6 28 14 14 12 -8 61 -57 109 -108z m-1480 -2063 c26 -14
142 -87 257 -164 637 -423 1383 -859 2504 -1462 289 -155 530 -287 535 -292
14 -14 -60 -77 -243 -205 -285 -200 -385 -246 -532 -246 -105 -1 -172 18 -310
87 -452 225 -1212 900 -1791 1591 -158 188 -375 490 -458 636 -48 86 -42 95
38 55z m-13199 -5226 c174 -25 288 -54 377 -95 289 -133 678 -526 841 -850 53
-107 72 -174 72 -260 0 -92 -12 -109 -88 -124 -94 -18 -233 -125 -290 -221
-22 -37 -27 -56 -26 -110 5 -310 269 -1059 521 -1483 149 -249 208 -276 243
-110 6 26 15 251 20 498 11 565 20 648 101 892 55 164 105 261 149 291 40 27
71 27 330 -3 84 -10 193 -15 262 -13 114 3 118 4 147 32 40 38 81 121 81 161
0 72 -93 281 -185 415 -81 119 -152 203 -304 363 -159 168 -169 190 -57 122
170 -102 389 -280 600 -485 261 -256 417 -448 455 -563 58 -176 53 -498 -11
-633 -44 -94 -169 -203 -282 -247 -28 -10 -97 -23 -153 -28 -140 -12 -201 -37
-274 -110 -44 -44 -71 -84 -108 -161 -76 -155 -84 -205 -78 -438 10 -311 42
-530 98 -659 37 -88 125 -151 210 -151 99 0 313 91 581 248 181 106 294 167
326 177 69 20 -15 -92 -454 -605 -728 -851 -919 -1113 -1244 -1708 l-95 -173
-6 278 c-4 233 -8 286 -23 329 -24 68 -77 137 -151 197 -80 64 -356 200 -675
331 -736 302 -809 351 -1197 806 -274 322 -367 388 -625 445 -242 54 -311 128
-329 352 -15 181 -43 325 -119 598 -79 286 -91 322 -127 385 -93 161 -247 261
-499 324 -133 33 -265 53 -539 79 l-230 22 180 53 c267 78 352 93 557 99 207
6 321 -8 488 -63 220 -72 540 -260 736 -432 152 -133 276 -307 341 -477 82
-215 106 -272 144 -338 53 -91 140 -177 249 -249 323 -212 930 -505 998 -483
54 16 80 137 63 290 -20 171 -70 269 -257 500 -242 299 -338 504 -459 980 -73
287 -89 384 -89 545 -1 211 27 311 185 640 97 204 149 346 149 409 0 81 -101
156 -300 219 -101 32 -231 60 -553 117 -109 19 -208 40 -220 46 -20 11 -20 12
7 26 15 8 46 18 69 23 62 13 313 3 467 -20z m10578 -3291 c-37 -67 -260 -332
-778 -929 -646 -743 -1083 -1312 -1479 -1928 -213 -330 -295 -494 -345 -684
-78 -301 -48 -486 89 -549 156 -72 449 75 721 363 104 111 176 201 313 392 61
85 115 158 120 161 5 3 41 -50 80 -117 101 -178 161 -259 285 -387 371 -380
953 -651 1753 -815 371 -76 791 -106 1493 -106 697 0 1195 31 1690 106 2158
325 4171 1028 5550 1939 300 198 510 361 790 614 74 67 183 165 243 218 141
127 256 209 397 282 180 93 505 229 517 217 18 -18 -950 -1007 -1317 -1346
-400 -369 -642 -559 -1080 -850 -1750 -1158 -3931 -1837 -6710 -2090 -342 -31
-735 -57 -1270 -85 -905 -47 -1091 -65 -1323 -125 -215 -55 -366 -128 -457
-219 -67 -67 -92 -117 -98 -191 -6 -89 24 -154 111 -237 293 -278 1214 -767
1822 -967 571 -187 1213 -304 1905 -346 214 -13 768 -13 996 0 987 56 2004
253 3079 595 660 210 1586 583 2295 925 313 150 417 196 426 187 52 -52 -984
-771 -1526 -1060 -405 -216 -1331 -575 -1885 -732 -863 -244 -1480 -346 -2445
-406 -274 -16 -1386 -23 -1675 -10 -902 41 -1638 149 -2505 366 -360 90 -669
179 -1210 350 -487 153 -644 184 -822 165 -177 -20 -279 -64 -347 -150 -61
-77 -76 -133 -75 -280 0 -116 3 -132 33 -215 98 -268 762 -1437 1157 -2037
432 -655 947 -1206 1549 -1657 511 -382 1077 -686 1705 -916 308 -113 388
-150 366 -172 -9 -10 -214 14 -416 48 -1501 254 -2904 1121 -3975 2459 -424
529 -792 1113 -1044 1657 -44 94 -133 303 -198 465 l-118 293 -3 -135 c-15
-648 297 -1645 784 -2503 341 -600 802 -1184 1678 -2126 100 -107 253 -271
340 -365 353 -380 548 -618 524 -641 -15 -16 -204 -38 -508 -60 -606 -44
-1025 -112 -1410 -232 -673 -208 -1114 -559 -1329 -1059 -64 -148 -176 -471
-281 -809 -197 -638 -272 -823 -478 -1197 -42 -76 -79 -138 -83 -138 -7 0 -41
62 -207 375 -405 768 -904 2014 -1205 3015 -394 1306 -566 2240 -617 3360 -13
276 -13 1125 0 1385 44 892 166 1525 470 2435 738 2210 1815 3804 3407 5042
510 397 1084 761 1740 1107 164 85 736 367 783 384 30 11 31 6 8 -34z m12036
-2951 c-32 -56 -164 -241 -228 -322 -739 -929 -2128 -1913 -3591 -2543 -1028
-443 -2164 -770 -3346 -963 -1116 -182 -2124 -235 -2939 -154 -764 75 -1307
245 -1513 474 -98 109 -64 168 119 204 153 30 275 36 949 46 1002 14 1521 34
2185 86 2322 179 4162 634 5695 1409 704 357 1338 764 2075 1335 200 155 502
383 560 422 30 20 44 23 34 6z m-2359 -4574 c439 -33 820 -84 1120 -150 495
-109 932 -264 1360 -483 449 -229 783 -469 1116 -801 197 -197 331 -359 472
-571 203 -307 439 -761 410 -790 -5 -5 -40 10 -78 32 -269 160 -746 302 -1305
390 -189 30 -487 33 -593 6 -194 -49 -297 -153 -297 -298 0 -60 39 -184 85
-269 19 -35 32 -67 27 -71 -4 -3 -54 -14 -112 -25 -506 -90 -1531 161 -1955
479 -255 190 -557 489 -527 519 12 12 155 -36 292 -97 58 -26 153 -69 213 -96
286 -129 506 -174 732 -150 218 23 510 104 679 187 254 126 465 369 483 555
18 203 -150 428 -502 674 -290 202 -554 319 -1220 539 -592 197 -908 317
-1025 391 -75 47 -38 55 230 49 107 -3 285 -11 395 -20z m-11157 -370 c128
-33 239 -117 416 -315 109 -122 201 -207 353 -326 449 -349 1159 -759 1698
-981 1099 -451 2203 -635 4260 -712 547 -21 826 -38 804 -50 -19 -11 -389 -83
-579 -114 -1014 -165 -2128 -161 -3160 9 -1223 202 -2270 609 -3035 1180 -638
475 -1113 1040 -1055 1253 12 46 27 61 73 73 41 10 151 2 225 -17z m10010
-794 c17 -47 56 -166 87 -265 345 -1098 940 -1690 1951 -1944 271 -68 431 -88
813 -100 498 -17 1070 8 1861 79 859 78 1216 95 2005 95 794 0 894 -8 1139
-95 480 -170 876 -521 1020 -903 42 -112 121 -287 267 -589 254 -527 319 -733
319 -1008 0 -268 -67 -485 -302 -975 -117 -244 -189 -420 -227 -555 -11 -41
-41 -194 -66 -340 -25 -146 -56 -323 -70 -395 -35 -184 -60 -357 -90 -610 -61
-521 -91 -700 -172 -1020 -87 -344 -188 -617 -291 -783 -94 -152 -271 -377
-492 -627 -564 -639 -746 -953 -1003 -1740 -200 -611 -357 -1190 -462 -1705
-62 -305 -108 -490 -155 -623 -94 -266 -223 -465 -425 -655 -308 -289 -648
-441 -1480 -662 -968 -258 -1168 -317 -1449 -429 -68 -27 -165 -70 -216 -96
-312 -157 -1182 -754 -1675 -1150 -416 -335 -674 -496 -942 -589 -247 -85
-616 -132 -848 -107 -142 16 -197 27 -585 121 -611 148 -849 190 -1081 190
-341 0 -723 -65 -1290 -219 -427 -116 -559 -141 -739 -141 -343 1 -520 137
-925 715 -166 238 -323 412 -444 494 -301 204 -888 351 -1706 426 -510 47
-653 97 -833 290 -126 135 -200 310 -377 895 -135 443 -240 650 -438 857 -161
168 -344 304 -775 572 -303 188 -388 246 -560 376 -310 234 -510 452 -598 651
-57 129 -94 327 -94 504 0 207 32 360 150 710 117 348 150 503 150 702 0 215
-55 381 -198 597 -229 346 -752 580 -1301 581 -108 0 -219 14 -234 29 -13 13
37 119 123 256 186 299 338 609 510 1040 96 242 149 392 344 980 186 559 273
791 369 980 53 106 71 130 146 205 131 129 289 213 581 310 156 51 555 155
753 196 356 72 853 82 1206 23 495 -83 775 -293 995 -749 80 -165 111 -270
126 -426 15 -153 15 -499 1 -634 -96 -870 -620 -1485 -1388 -1629 -373 -71
-757 -47 -993 61 -124 57 -260 147 -335 223 -107 107 -167 217 -202 369 -19
84 -25 428 -7 446 15 15 79 -29 209 -141 233 -203 317 -263 413 -299 81 -31
199 -43 275 -30 142 26 333 150 427 278 118 160 107 259 -47 422 -131 139
-303 251 -495 321 -258 95 -440 77 -753 -76 -361 -176 -571 -386 -750 -750
-205 -416 -204 -678 4 -955 70 -94 207 -221 306 -286 448 -292 1104 -317 1830
-71 477 162 785 347 1520 915 l80 62 6 -958 c7 -1151 19 -1544 55 -1807 72
-530 355 -1673 545 -2204 293 -815 822 -1487 1519 -1928 513 -324 1133 -539
1750 -607 329 -37 468 -41 1300 -41 977 0 1044 4 1595 96 1327 221 2676 621
3715 1104 1053 489 1984 1238 2575 2072 304 429 1160 1874 1433 2419 268 536
667 1613 951 2566 212 712 301 1109 343 1533 20 197 16 812 -5 985 -77 617
-305 1065 -703 1384 -193 154 -408 266 -699 361 -391 129 -455 133 -2305 142
l-1355 6 -58 -157 c-32 -86 -64 -189 -72 -227 -43 -202 7 -346 170 -497 242
-223 582 -317 1375 -382 394 -32 590 -50 669 -62 65 -9 72 -13 57 -24 -81 -58
-909 -302 -1186 -348 -601 -101 -1748 -82 -2215 35 -936 236 -1788 778 -2370
1509 -182 228 -356 510 -520 842 -134 270 -199 448 -164 448 22 0 127 -117
301 -332 89 -111 206 -253 261 -317 650 -758 1202 -1163 1732 -1270 516 -104
1055 4 1161 233 29 62 32 166 8 260 -21 87 -114 270 -171 341 -60 75 -117 113
-219 149 -237 83 -554 276 -866 524 -151 120 -471 434 -572 562 -239 301 -410
637 -496 974 -64 253 -75 362 -75 746 0 317 4 386 24 364 5 -5 22 -47 39 -94z
m9972 -2960 c0 -59 -152 -292 -250 -383 -135 -125 -299 -182 -363 -126 -31 27
-43 78 -33 134 15 79 99 141 413 302 186 95 233 110 233 73z m375 -3288 c-160
-150 -369 -285 -601 -390 -204 -91 -310 -103 -416 -45 -76 41 -101 93 -96 194
6 99 36 154 105 191 102 55 205 65 668 67 350 1 359 1 340 -17z m-14625 -741
c0 -5 -71 -37 -157 -71 -195 -77 -264 -112 -379 -189 -268 -180 -467 -435
-439 -563 9 -39 58 -94 106 -119 52 -26 182 -55 309 -69 208 -23 277 -45 324
-100 39 -47 49 -100 43 -220 -18 -316 -242 -825 -605 -1374 -58 -87 -114 -181
-124 -209 -28 -74 -39 -143 -28 -173 9 -22 15 -25 38 -20 122 28 548 299 849
541 248 198 665 661 760 841 l27 51 -27 46 c-15 25 -53 68 -84 94 -84 71 -104
93 -125 142 -45 100 25 209 218 339 146 98 491 267 616 302 104 29 369 43 672
36 356 -9 393 -16 585 -107 194 -92 381 -215 381 -250 0 -26 -145 7 -605 141
-320 92 -431 93 -572 1 -86 -55 -101 -92 -113 -264 -11 -163 -44 -317 -116
-537 -94 -290 -173 -451 -302 -622 -221 -294 -546 -535 -1086 -805 -551 -276
-715 -434 -734 -711 -4 -66 -3 -75 19 -98 49 -52 145 -65 664 -90 398 -19 509
-15 622 21 177 56 395 189 654 402 284 232 374 277 599 303 113 13 426 13 548
-1 469 -51 895 -241 1183 -528 114 -115 219 -243 219 -270 0 -9 -8 -11 -27 -7
-45 11 -208 92 -322 160 -144 87 -230 128 -347 169 -164 57 -249 71 -424 72
-181 0 -260 -18 -394 -88 -191 -99 -325 -239 -587 -612 -46 -65 -118 -154
-159 -197 l-75 -78 -56 0 c-77 0 -200 23 -404 74 l-171 43 -385 -114 c-906
-267 -971 -272 -1701 -128 -610 121 -950 135 -1135 48 -140 -65 -276 -309
-290 -523 -6 -90 -15 -120 -37 -120 -21 0 -43 65 -90 267 -25 106 -68 275 -95
376 -65 239 -104 411 -146 660 -64 370 -126 933 -156 1403 -13 211 -8 546 9
587 37 88 101 -62 212 -493 80 -310 117 -419 174 -504 73 -109 182 -159 303
-137 186 34 374 220 591 584 161 272 213 400 233 575 29 249 -29 359 -231 443
-101 41 -159 85 -205 154 -62 94 -88 181 -93 316 -4 109 -3 121 20 170 14 30
59 92 101 139 99 111 381 375 481 450 233 173 762 370 1159 430 129 19 307 26
307 11z m-7803 -3017 c106 -31 210 -101 305 -204 151 -162 174 -235 165 -510
-8 -242 -50 -386 -147 -509 -35 -44 -59 -60 -227 -144 -103 -52 -327 -156
-498 -232 -718 -317 -940 -450 -1295 -776 -165 -151 -246 -219 -261 -219 -14
0 -11 31 17 147 183 768 415 1271 834 1805 182 232 526 521 744 624 118 56
218 61 363 18z m19653 -1196 c74 -25 200 -74 280 -108 308 -132 458 -180 658
-209 74 -11 136 -21 138 -23 7 -8 -344 -178 -440 -213 -122 -45 -288 -89 -421
-111 -148 -25 -395 -23 -497 4 -100 27 -163 60 -216 113 -68 69 -87 118 -87
224 0 79 4 96 29 144 33 65 123 162 186 203 43 29 48 30 140 25 79 -3 118 -12
230 -49z m-17215 -3143 c92 -16 227 -64 286 -101 53 -33 106 -99 126 -158 30
-84 24 -354 -10 -515 -14 -70 -34 -136 -45 -150 -45 -61 -693 -363 -1277 -594
-381 -151 -448 -192 -703 -425 -127 -115 -198 -170 -208 -159 -14 14 125 460
216 691 50 127 127 248 290 450 475 593 857 921 1123 965 78 13 106 12 202 -4z
m12441 -1909 c27 -7 78 -26 112 -41 180 -81 278 -309 372 -869 63 -371 101
-510 196 -719 30 -65 57 -129 60 -142 6 -25 6 -25 -32 -11 -87 30 -254 117
-329 171 -297 213 -715 646 -844 876 -60 107 -94 216 -95 304 0 73 2 86 34
145 43 81 217 260 281 290 37 17 56 20 119 15 41 -3 98 -11 126 -19z m-9284
-379 c249 -79 388 -301 376 -600 -4 -95 -8 -119 -30 -162 -77 -149 -311 -349
-685 -586 -431 -273 -613 -408 -804 -599 -127 -126 -207 -232 -283 -374 -32
-58 -60 -106 -63 -106 -15 0 6 480 27 615 49 326 136 608 265 867 143 285 461
693 655 840 78 59 186 113 255 127 76 15 199 6 287 -22z m4009 -1271 c96 -17
166 -53 218 -112 90 -102 135 -216 135 -340 0 -72 -4 -89 -36 -155 -66 -137
-156 -245 -523 -619 -387 -395 -528 -557 -632 -725 -67 -109 -117 -165 -133
-149 -24 24 -32 183 -27 542 4 282 9 387 21 452 80 416 277 777 533 981 153
122 272 155 444 125z"/>
<path d="M28876 41623 c238 -320 591 -697 715 -766 130 -73 375 -137 518 -137
60 0 165 20 179 34 7 8 -82 241 -132 346 -49 103 -131 194 -213 238 -67 35
-181 71 -343 107 -165 37 -308 77 -533 150 -108 36 -202 65 -208 65 -6 0 1
-17 17 -37z"/>
</g>
</svg>
