<?xml version="1.0" standalone="no"?>
<!DOCTYPE svg PUBLIC "-//W3C//DTD SVG 20010904//EN"
 "http://www.w3.org/TR/2001/REC-SVG-20010904/DTD/svg10.dtd">
<svg version="1.0" xmlns="http://www.w3.org/2000/svg"
 width="4096.000000pt" height="1321.000000pt" viewBox="0 0 4096.000000 1321.000000"
 preserveAspectRatio="xMidYMid meet">

<g transform="translate(0.000000,1321.000000) scale(0.100000,-0.100000)"
fill="#000000" stroke="none">
<path d="M5505 12858 c-27 -5 -120 -23 -205 -39 -1440 -278 -3106 -966 -4727
-1952 l-183 -111 0 -261 c0 -918 87 -1960 241 -2880 612 -3671 2362 -6305
4796 -7221 l143 -53 102 38 c983 365 1850 1000 2603 1906 1284 1543 2126 3832
2385 6485 56 576 90 1230 90 1740 l0 246 -182 111 c-935 569 -1948 1066 -2883
1416 -626 235 -1246 415 -1805 527 -297 59 -312 61 -375 48z m54 -1342 c297
-328 624 -584 978 -764 175 -89 286 -131 412 -157 107 -22 155 -21 268 4 51
12 112 21 135 21 98 0 255 -58 305 -111 13 -15 28 -52 37 -96 27 -131 70 -201
155 -251 40 -24 57 -27 136 -28 l89 -1 13 -30 c16 -39 64 -79 112 -94 34 -10
45 -8 97 14 84 37 119 39 129 7 13 -40 58 -80 161 -142 124 -74 212 -160 263
-258 l34 -65 -74 71 c-76 72 -142 117 -191 129 l-28 7 0 -103 c-1 -178 -37
-318 -97 -381 -15 -16 -30 -28 -35 -28 -4 0 -8 34 -8 75 0 40 -5 98 -11 127
-12 53 -44 128 -56 128 -3 0 -52 -34 -107 -76 -99 -76 -195 -129 -218 -122 -6
2 14 32 45 67 55 62 77 111 63 146 -9 25 -75 47 -140 46 -103 -1 -216 -42
-347 -126 l-67 -43 -32 89 c-36 101 -36 101 -126 68 -74 -28 -144 -94 -144
-136 0 -39 31 -78 83 -105 35 -18 63 -22 162 -25 66 -2 130 -6 142 -8 28 -6
81 -51 104 -90 l19 -30 0 35 c1 19 6 48 13 64 l12 28 46 -53 c73 -85 138 -178
181 -256 22 -40 45 -73 52 -73 24 0 80 45 100 80 11 19 28 64 37 100 l17 65
17 -40 c10 -22 20 -73 23 -113 5 -81 15 -87 48 -28 28 49 34 33 34 -93 0 -159
-43 -281 -128 -369 -46 -46 -115 -93 -159 -106 -21 -7 -21 -6 -7 46 18 69 18
128 -1 155 -38 54 -160 55 -420 4 -82 -16 -151 -28 -153 -27 -1 2 28 21 64 42
83 48 170 130 180 167 9 37 -25 74 -75 83 -20 4 -92 27 -161 51 -134 47 -162
49 -229 14 -33 -17 -35 -17 -85 2 -34 14 -75 20 -126 21 -65 0 -88 -5 -170
-39 -90 -37 -100 -39 -205 -40 -107 0 -112 1 -188 37 -97 47 -186 131 -225
215 -39 84 -38 178 3 252 16 29 49 70 72 91 49 42 158 103 236 129 l52 18 -49
8 c-26 4 -76 5 -110 1 -186 -19 -288 -123 -346 -353 l-10 -41 -53 14 c-28 8
-97 23 -152 33 -55 11 -129 27 -165 35 -144 32 -274 41 -585 41 -270 -1 -328
-4 -454 -23 -464 -73 -885 -252 -1190 -506 -478 -399 -828 -1053 -927 -1731
-25 -168 -25 -600 0 -770 35 -244 125 -523 244 -760 39 -79 198 -369 263 -480
23 -40 23 -40 -47 22 -327 288 -593 678 -770 1131 -26 67 -51 122 -55 122 -16
0 -40 -74 -50 -152 -6 -45 -12 -84 -13 -86 -7 -7 -47 68 -66 122 -81 237 -35
627 136 1134 58 173 148 404 208 536 20 44 34 81 32 83 -14 14 -118 -67 -229
-179 l-127 -130 0 65 c0 188 84 442 218 657 143 231 304 425 581 699 194 191
212 213 181 206 -56 -12 -157 -49 -269 -99 -57 -26 -105 -45 -107 -43 -6 6
100 103 184 171 433 346 1151 613 1792 666 74 6 160 14 190 17 l55 6 -68 17
c-63 17 -128 27 -407 66 -63 8 -120 19 -127 23 -16 8 -9 10 422 87 382 68 507
95 659 145 130 43 299 119 370 168 24 17 48 31 52 31 4 0 50 -26 103 -59 147
-90 202 -118 284 -146 71 -23 178 -34 176 -17 0 4 -51 48 -112 97 -151 122
-522 493 -639 640 -158 197 -299 426 -323 525 -7 29 -27 49 184 -184z m-446
-365 c121 -81 362 -223 547 -321 96 -52 177 -95 179 -97 5 -4 -11 -17 -85 -68
-70 -49 -110 -54 -176 -21 -138 68 -396 315 -513 492 -54 81 -50 82 48 15z
m-3165 -1226 c95 -28 242 -193 242 -272 0 -27 -4 -33 -21 -33 -11 0 -34 -14
-51 -30 -28 -28 -30 -34 -23 -78 10 -74 62 -220 106 -299 68 -122 79 -112 79
75 0 108 4 144 21 195 28 84 34 90 83 82 23 -3 61 -7 86 -8 38 -2 46 2 58 23
13 23 12 31 -13 84 -17 36 -52 82 -89 119 -65 64 -46 61 44 -8 69 -53 162
-151 184 -192 21 -42 21 -136 0 -173 -20 -33 -63 -60 -97 -60 -48 0 -74 -18
-97 -65 -20 -41 -22 -57 -17 -133 12 -191 48 -206 227 -97 32 19 63 35 69 35
7 0 -23 -41 -66 -91 -209 -242 -267 -319 -332 -439 l-41 -75 2 77 c2 109 -13
123 -224 209 -151 61 -179 80 -262 179 -70 84 -97 103 -159 114 -53 10 -77 37
-77 87 0 22 -7 64 -14 92 -8 29 -20 71 -26 94 -23 91 -83 126 -240 141 l-85 8
55 16 c137 42 236 28 355 -50 84 -54 129 -107 154 -184 14 -41 33 -76 54 -95
42 -40 251 -148 271 -140 11 4 16 19 16 46 0 56 -12 83 -69 151 -54 64 -81
128 -112 259 -25 108 -20 152 32 255 26 52 38 87 35 102 -7 26 -57 48 -147 64
-124 21 -126 22 -104 31 26 11 129 3 193 -16z m2435 -823 c-26 -31 -89 -105
-140 -163 -140 -160 -236 -282 -322 -409 -92 -136 -117 -182 -131 -246 -41
-180 116 -154 257 43 l46 64 28 -49 c77 -135 254 -231 514 -278 139 -25 497
-25 680 0 580 79 1133 280 1470 535 33 25 94 77 135 116 58 55 94 80 159 108
46 21 85 36 87 34 2 -2 -78 -87 -179 -189 -114 -116 -221 -213 -287 -262 -483
-359 -1109 -550 -1945 -596 -104 -5 -226 -12 -270 -15 -189 -12 -292 -73 -256
-151 23 -51 288 -199 451 -253 418 -136 913 -114 1463 65 161 53 401 151 537
219 51 26 94 44 96 42 13 -12 -216 -173 -356 -250 -88 -49 -318 -140 -443
-176 -255 -74 -444 -101 -738 -108 -426 -10 -727 34 -1145 168 -131 42 -168
50 -212 46 -74 -5 -107 -38 -107 -105 1 -41 14 -72 104 -232 56 -102 141 -243
189 -315 192 -289 463 -500 792 -615 84 -30 96 -42 35 -34 -372 45 -721 245
-990 565 -137 164 -247 344 -316 518 l-38 96 -1 -46 c0 -125 55 -323 140 -494
96 -196 209 -344 490 -644 128 -136 178 -196 168 -201 -7 -4 -62 -10 -121 -14
-354 -22 -559 -113 -648 -288 -16 -31 -47 -118 -70 -192 -45 -151 -74 -228
-115 -299 l-27 -49 -29 54 c-114 207 -251 550 -331 833 -96 335 -130 568 -131
890 -1 322 28 507 124 788 237 697 628 1150 1270 1474 80 40 149 73 153 73 5
0 -13 -26 -40 -58z m2881 -724 c-135 -175 -360 -356 -634 -508 -391 -217 -890
-356 -1402 -390 -313 -21 -610 25 -700 108 -62 57 -9 72 256 72 565 1 1063 64
1453 186 343 106 624 256 933 497 74 58 136 104 138 102 2 -2 -18 -32 -44 -67z
m-313 -1059 c335 -60 608 -222 763 -452 51 -75 113 -197 101 -197 -3 0 -16 7
-29 15 -62 41 -282 95 -386 95 -112 0 -156 -50 -115 -130 l15 -29 -37 -7 c-98
-18 -313 28 -429 93 -55 31 -171 139 -161 149 4 4 48 -12 98 -36 108 -51 164
-59 262 -36 88 21 135 45 180 95 62 69 46 132 -54 211 -73 58 -164 101 -299
144 -151 47 -280 98 -280 110 0 14 249 -3 371 -25z m-2855 -78 c17 -10 47 -39
68 -64 72 -88 317 -242 501 -316 269 -107 529 -150 1023 -167 106 -4 190 -9
188 -11 -2 -2 -51 -13 -109 -23 -527 -95 -1122 5 -1482 250 -186 127 -332 300
-288 343 13 13 69 7 99 -12z m2389 -238 c86 -279 242 -425 515 -480 109 -22
354 -19 609 7 263 26 618 32 701 11 131 -33 249 -127 285 -228 10 -27 41 -96
70 -154 96 -192 96 -268 1 -460 -38 -76 -57 -128 -66 -180 -6 -41 -18 -108
-26 -149 -8 -41 -18 -120 -24 -175 -11 -122 -50 -277 -89 -359 -17 -38 -66
-103 -126 -171 -107 -120 -153 -187 -195 -279 -48 -105 -139 -412 -165 -554
-32 -171 -63 -239 -144 -315 -71 -65 -154 -103 -344 -153 -72 -19 -175 -47
-227 -61 -52 -14 -131 -43 -175 -64 -79 -39 -291 -185 -422 -291 -133 -108
-214 -145 -343 -155 -65 -5 -95 -1 -220 31 -80 20 -172 39 -205 42 -82 9 -208
-9 -356 -51 -230 -65 -271 -50 -406 147 -30 44 -71 89 -96 107 -78 53 -213 87
-427 106 -94 8 -133 20 -171 52 -40 34 -61 78 -99 208 -57 196 -94 241 -308
372 -164 100 -254 185 -276 262 -26 88 -21 151 21 270 46 131 49 201 10 276
-31 61 -67 96 -132 129 -64 31 -124 45 -197 46 -31 0 -59 3 -62 8 -2 4 11 32
31 62 62 96 129 250 183 418 72 225 107 312 138 345 42 44 111 75 250 109 106
27 146 32 242 33 197 0 297 -50 361 -181 29 -59 34 -79 37 -163 12 -301 -161
-501 -433 -501 -86 0 -127 11 -187 49 -60 38 -89 92 -89 167 -1 30 1 58 4 60
3 3 31 -18 62 -46 62 -56 90 -70 139 -70 56 0 136 67 136 115 0 30 -54 85
-111 114 -81 40 -131 41 -213 2 -87 -42 -138 -90 -179 -169 -62 -118 -59 -186
11 -264 100 -110 276 -135 483 -69 107 35 183 77 310 173 l89 68 0 -278 c-1
-152 4 -320 10 -372 15 -131 93 -444 141 -567 106 -271 307 -458 585 -546 131
-41 235 -52 504 -52 221 1 260 4 401 28 397 69 778 196 1021 340 204 120 371
273 485 442 104 157 283 463 338 578 106 223 255 675 289 876 23 134 21 308
-4 405 -48 189 -170 303 -376 353 -58 14 -128 17 -447 18 l-377 0 -17 -45
c-28 -71 -23 -113 16 -154 63 -65 147 -88 380 -105 73 -5 135 -12 138 -15 7
-7 -169 -62 -267 -83 -131 -28 -434 -26 -551 4 -262 67 -485 223 -624 437 -58
89 -119 218 -113 237 2 6 35 -29 73 -78 150 -189 271 -299 392 -355 112 -53
279 -50 348 4 34 26 33 76 -2 139 -21 36 -37 52 -61 60 -96 32 -225 122 -320
224 -109 116 -168 253 -173 400 -2 72 0 145 5 145 3 0 17 -39 31 -87z m2375
-651 c0 -4 -13 -28 -29 -53 -47 -74 -136 -102 -129 -40 2 21 17 33 73 63 73
39 85 43 85 30z m60 -813 c-42 -37 -146 -89 -178 -89 -38 0 -62 18 -62 48 0
59 30 71 165 71 l110 0 -35 -30z m-3480 -153 c0 -2 -26 -13 -59 -25 -93 -34
-191 -133 -175 -176 9 -24 37 -35 104 -42 47 -5 65 -11 75 -27 34 -54 -34
-232 -157 -408 -16 -23 -25 -68 -13 -68 30 0 202 116 260 176 74 76 135 152
135 168 0 8 -13 25 -30 38 -60 44 -27 92 110 157 73 35 78 36 195 36 110 0
125 -2 175 -27 60 -29 96 -55 89 -63 -3 -2 -49 9 -104 25 -108 33 -135 36
-168 19 -30 -16 -37 -28 -37 -70 0 -56 -44 -193 -80 -249 -54 -85 -138 -151
-275 -219 -134 -66 -171 -100 -182 -164 -7 -45 -1 -47 163 -54 125 -6 133 -5
185 19 30 14 84 50 121 82 78 67 104 76 219 76 148 0 292 -62 369 -160 32 -40
32 -42 10 -35 -13 4 -45 20 -70 36 -66 41 -124 59 -187 59 -85 0 -148 -43
-223 -155 -27 -40 -57 -76 -67 -79 -10 -4 -48 1 -84 10 l-67 17 -139 -41
c-164 -49 -197 -51 -361 -17 -151 31 -249 33 -284 5 -32 -25 -58 -79 -58 -119
0 -43 -16 -39 -25 7 -4 20 -20 87 -37 147 -19 70 -37 174 -49 285 -37 346 -17
438 42 189 24 -103 49 -139 97 -139 46 0 91 39 142 120 55 88 70 128 70 185 0
46 -14 63 -67 84 -38 15 -63 62 -63 117 0 35 7 46 78 114 62 61 92 82 156 108
43 18 106 39 139 46 60 14 127 20 127 12z m-1856 -730 c18 -7 47 -31 64 -52
28 -34 32 -46 32 -102 0 -68 -16 -117 -47 -145 -11 -9 -78 -42 -149 -73 -179
-77 -245 -116 -325 -192 -65 -60 -70 -63 -64 -36 37 163 83 278 154 383 61 89
98 128 171 183 71 52 104 59 164 34z m4776 -311 c46 -21 106 -41 134 -44 l51
-7 -50 -26 c-124 -64 -277 -78 -330 -28 -36 34 -34 82 5 122 27 26 36 30 69
25 21 -2 76 -22 121 -42z m-4154 -741 c43 -18 56 -53 48 -130 -4 -35 -12 -70
-18 -78 -11 -14 -195 -98 -336 -152 -55 -22 -89 -43 -132 -84 -32 -31 -58 -51
-58 -44 0 17 48 161 64 193 24 46 141 185 198 235 97 85 145 97 234 60z m2977
-462 c32 -28 54 -93 71 -202 9 -64 25 -125 40 -155 13 -27 23 -51 21 -53 -2
-2 -27 9 -57 24 -65 32 -206 173 -237 236 -31 66 -28 94 19 140 38 38 43 40
82 34 24 -4 51 -15 61 -24z m-2258 -76 c46 -20 75 -69 75 -129 0 -41 -5 -53
-40 -90 -21 -24 -90 -74 -152 -112 -121 -74 -203 -147 -236 -211 l-21 -39 -1
62 c0 118 40 261 100 349 113 167 181 209 275 170z m988 -316 c14 -11 31 -36
37 -55 20 -61 0 -95 -130 -224 -64 -64 -129 -137 -144 -163 -15 -27 -31 -48
-36 -48 -10 0 -13 56 -10 180 3 132 73 268 165 318 32 18 90 14 118 -8z"/>
<path d="M7380 10255 c40 -46 86 -93 104 -104 40 -25 119 -43 151 -35 l24 6
-19 50 c-29 76 -51 94 -137 113 -42 9 -100 25 -131 36 -30 10 -57 19 -59 19
-2 0 28 -38 67 -85z"/>
<path d="M40680 10214 c-883 -49 -1351 -89 -1915 -165 -207 -28 -707 -107
-713 -114 -3 -2 -351 -979 -359 -1006 -4 -14 10 -13 119 8 313 60 690 117
1043 157 193 22 278 31 490 51 214 21 686 48 1061 61 l192 6 142 402 c79 220
160 449 181 509 38 106 38 107 16 106 -12 -1 -128 -8 -257 -15z"/>
<path d="M15152 10183 c-5 -16 -580 -1603 -1277 -3528 -698 -1925 -1270 -3510
-1273 -3522 l-4 -23 1395 0 1395 0 15 43 c8 23 308 845 666 1827 563 1540 664
1808 736 1955 137 280 296 504 520 734 279 287 572 500 920 671 483 237 973
312 1278 196 175 -66 281 -186 323 -363 22 -93 14 -276 -17 -401 -12 -51 -392
-1113 -843 -2360 l-821 -2267 1394 -3 c767 -1 1396 0 1399 2 2 3 295 802 652
1778 742 2032 692 1898 768 2048 230 453 590 848 1052 1155 444 296 925 465
1322 465 323 0 528 -102 629 -313 58 -123 64 -320 14 -513 -14 -56 -394 -1120
-845 -2365 -459 -1266 -820 -2278 -820 -2296 l0 -33 1377 2 1376 3 899 2480
c494 1364 910 2521 923 2572 38 145 56 300 56 488 0 265 -42 466 -137 660 -57
118 -123 203 -242 316 -260 246 -523 391 -867 479 -256 65 -491 90 -856 90
-462 0 -849 -49 -1314 -167 -309 -78 -758 -231 -1005 -343 -275 -124 -769
-385 -1053 -557 -59 -36 -109 -63 -111 -62 -1 2 -10 33 -20 69 -49 187 -144
349 -285 482 -428 408 -841 567 -1556 598 -701 30 -1390 -85 -2155 -362 -241
-88 -382 -149 -671 -294 -273 -136 -692 -367 -835 -461 -21 -13 -22 -12 -44
59 -51 169 -145 331 -267 459 -314 330 -690 516 -1193 589 -133 19 -406 40
-527 40 -58 0 -62 -2 -71 -27z"/>
<path d="M33470 10153 c-984 -52 -1711 -180 -2350 -411 -402 -146 -775 -348
-1050 -568 -245 -197 -461 -463 -595 -732 -203 -409 -243 -770 -123 -1110 39
-112 72 -177 147 -289 114 -171 234 -282 476 -445 221 -148 397 -246 880 -488
1072 -539 1320 -700 1433 -928 33 -68 36 -81 35 -155 -3 -211 -112 -425 -287
-563 -197 -156 -480 -252 -887 -302 -120 -14 -226 -17 -629 -16 -468 0 -654 7
-1050 40 -416 34 -899 94 -1303 162 -125 21 -230 35 -233 31 -2 -4 -85 -228
-183 -498 -148 -408 -175 -491 -162 -495 33 -10 282 -56 486 -90 814 -136
1605 -199 2505 -200 687 0 1204 38 1743 130 1690 286 2681 970 2943 2034 24
101 30 354 10 469 -43 248 -157 468 -344 662 -202 211 -395 329 -1252 764
-854 434 -1172 628 -1323 809 -98 119 -123 216 -92 367 90 447 535 703 1370
789 400 42 1046 28 1655 -36 341 -35 935 -119 1234 -174 61 -11 113 -17 117
-13 6 8 347 918 356 954 5 19 3 20 -280 73 -613 116 -1344 196 -2082 226 -213
9 -1020 11 -1165 3z"/>
<path d="M39975 8473 c-862 -34 -1685 -122 -2419 -260 -136 -26 -138 -26 -151
-57 -28 -67 -1818 -5002 -1823 -5024 l-4 -22 1403 0 1404 0 12 38 c6 20 442
1226 967 2680 526 1454 956 2645 956 2648 0 4 -211 3 -345 -3z"/>
</g>
</svg>
