<?xml version="1.0" standalone="no"?>
<!DOCTYPE svg PUBLIC "-//W3C//DTD SVG 20010904//EN"
 "http://www.w3.org/TR/2001/REC-SVG-20010904/DTD/svg10.dtd">
<svg version="1.0" xmlns="http://www.w3.org/2000/svg"
 width="1967.000000pt" height="1967.000000pt" viewBox="0 0 1967.000000 1967.000000"
 preserveAspectRatio="xMidYMid meet">

<g transform="translate(0.000000,1967.000000) scale(0.100000,-0.100000)"
fill="#000000" stroke="none">
<path d="M4303 19616 c-23 -7 -56 -23 -75 -34 -18 -12 -958 -947 -2089 -2079
-2292 -2293 -2094 -2083 -2094 -2233 1 -142 -168 38 2053 -2181 2174 -2173
2047 -2052 2268 -2162 109 -55 268 -112 384 -138 62 -14 397 -41 1245 -103
638 -47 1189 -90 1225 -96 84 -14 217 -65 316 -120 74 -41 190 -155 1844
-1807 1965 -1961 1805 -1813 1951 -1813 65 0 85 4 137 30 111 56 174 157 174
281 0 143 142 -9 -1834 1965 -1911 1908 -1816 1818 -2033 1929 -122 62 -229
102 -364 136 -108 28 -176 34 -1275 114 -639 47 -1183 87 -1211 91 -114 14
-318 102 -430 187 -33 25 -878 866 -1877 1870 l-1816 1824 1796 1796 1797
1797 1841 -1842 c1013 -1014 1855 -1863 1871 -1888 49 -73 109 -199 137 -287
24 -78 30 -147 111 -1250 47 -643 92 -1208 100 -1258 21 -121 82 -299 145
-426 118 -237 -25 -86 2256 -2369 l2094 -2095 -610 -610 c-688 -688 -665 -660
-665 -800 0 -67 4 -89 27 -135 23 -47 445 -472 2770 -2795 2113 -2111 2762
-2754 2825 -2799 170 -119 360 -202 570 -248 134 -29 424 -32 558 -5 313 64
549 190 771 411 221 221 348 460 411 771 27 134 24 424 -5 557 -30 136 -65
236 -126 363 -112 228 56 54 -2920 3032 -2473 2475 -2747 2745 -2798 2768
-113 51 -230 41 -321 -29 l-44 -34 -2075 2077 c-1795 1795 -2081 2085 -2116
2146 -51 86 -94 191 -116 276 -10 42 -45 460 -101 1229 -47 641 -92 1203 -101
1250 -40 219 -158 484 -302 675 -25 33 -934 950 -2021 2038 -1635 1636 -1985
1982 -2029 2004 -64 31 -166 40 -229 19z m14524 -17591 c105 -138 161 -295
170 -470 20 -401 -237 -754 -627 -861 -102 -28 -330 -26 -433 4 -83 24 -193
75 -267 125 -25 16 -1214 1198 -2643 2626 l-2597 2596 597 597 598 598 2578
-2577 c1418 -1418 2599 -2605 2624 -2638z"/>
<path d="M13611 6284 c-130 -35 -219 -137 -237 -271 -15 -117 60 -254 170
-310 73 -38 180 -43 259 -13 250 94 265 453 24 569 -77 37 -145 45 -216 25z"/>
<path d="M14857 5006 c-175 -65 -257 -256 -182 -424 108 -242 446 -248 565
-10 26 52 30 72 30 138 0 66 -4 86 -30 138 -34 66 -77 110 -143 144 -53 27
-183 35 -240 14z"/>
<path d="M4194 17726 c-144 -36 -240 -163 -237 -315 2 -133 -95 -29 1577
-1701 1126 -1126 1521 -1515 1555 -1532 67 -33 196 -32 264 1 110 54 177 162
177 285 0 129 10 116 -451 586 -230 234 -918 925 -1531 1536 -1033 1032 -1117
1113 -1163 1128 -73 23 -133 27 -191 12z"/>
<path d="M3201 16719 c-100 -19 -191 -92 -234 -187 -29 -66 -29 -179 1 -245
17 -39 303 -331 1533 -1568 1656 -1664 1555 -1569 1685 -1577 100 -7 166 19
240 92 45 46 65 75 79 115 23 72 17 178 -15 241 -16 32 -338 362 -1103 1130
-2043 2052 -1936 1946 -1997 1973 -64 29 -128 38 -189 26z"/>
<path d="M2134 15690 c-194 -77 -262 -313 -139 -480 18 -25 703 -714 1522
-1531 1663 -1659 1538 -1544 1683 -1544 60 0 86 5 130 26 148 70 216 231 166
389 -18 53 -70 107 -1540 1578 -1165 1167 -1533 1529 -1571 1549 -69 36 -179
42 -251 13z"/>
<path d="M2207 5163 c-4 -3 -7 -519 -7 -1145 l0 -1138 -1095 0 -1095 0 0 -290
0 -290 1095 0 1095 0 0 -1150 0 -1150 315 0 315 0 0 1148 0 1147 1095 3 1095
2 0 290 0 290 -1095 2 -1095 3 0 1126 c0 620 -3 1134 -6 1143 -5 14 -40 16
-308 16 -167 0 -306 -3 -309 -7z"/>
</g>
</svg>
